<mxfile host="app.diagrams.net" modified="2023-12-20T21:52:57.677Z" agent="Mozilla/5.0 (Windows NT 10.0; Win64; x64) AppleWebKit/537.36 (KHTML, like Gecko) Chrome/120.0.0.0 Safari/537.36" etag="84Xe36wsw35ww-UgmZ3k" version="22.1.11" type="github">
  <diagram name="Page-1" id="X_m1X7U1XduEr7-S5__R">
    <mxGraphModel dx="1899" dy="546" grid="1" gridSize="10" guides="1" tooltips="1" connect="1" arrows="1" fold="1" page="1" pageScale="1" pageWidth="850" pageHeight="1100" math="0" shadow="0">
      <root>
        <mxCell id="0" />
        <mxCell id="1" parent="0" />
        <mxCell id="xeRGKZyjkTPjDuxiUrJA-1" value="Front-End" style="rounded=1;whiteSpace=wrap;html=1;" vertex="1" parent="1">
          <mxGeometry x="-140" y="210" width="120" height="60" as="geometry" />
        </mxCell>
        <mxCell id="xeRGKZyjkTPjDuxiUrJA-2" value="web scraping" style="rounded=1;whiteSpace=wrap;html=1;" vertex="1" parent="1">
          <mxGeometry x="460" y="210" width="120" height="60" as="geometry" />
        </mxCell>
        <mxCell id="xeRGKZyjkTPjDuxiUrJA-3" value="Server" style="rounded=1;whiteSpace=wrap;html=1;" vertex="1" parent="1">
          <mxGeometry x="460" y="530" width="120" height="60" as="geometry" />
        </mxCell>
        <mxCell id="xeRGKZyjkTPjDuxiUrJA-4" value="Machine Learning" style="rounded=1;whiteSpace=wrap;html=1;" vertex="1" parent="1">
          <mxGeometry x="160" y="530" width="120" height="60" as="geometry" />
        </mxCell>
        <mxCell id="xeRGKZyjkTPjDuxiUrJA-5" value="Page&amp;nbsp;&lt;br&gt;Founded" style="rhombus;whiteSpace=wrap;html=1;" vertex="1" parent="1">
          <mxGeometry x="180" y="200" width="80" height="80" as="geometry" />
        </mxCell>
        <mxCell id="xeRGKZyjkTPjDuxiUrJA-6" value="Website supported&amp;nbsp;" style="rhombus;whiteSpace=wrap;html=1;" vertex="1" parent="1">
          <mxGeometry x="480" y="360" width="80" height="80" as="geometry" />
        </mxCell>
        <mxCell id="xeRGKZyjkTPjDuxiUrJA-8" value="" style="endArrow=classic;html=1;rounded=0;exitX=1;exitY=0.5;exitDx=0;exitDy=0;entryX=0;entryY=0.5;entryDx=0;entryDy=0;" edge="1" parent="1" source="xeRGKZyjkTPjDuxiUrJA-1" target="xeRGKZyjkTPjDuxiUrJA-5">
          <mxGeometry width="50" height="50" relative="1" as="geometry">
            <mxPoint x="400" y="360" as="sourcePoint" />
            <mxPoint x="450" y="310" as="targetPoint" />
          </mxGeometry>
        </mxCell>
        <mxCell id="xeRGKZyjkTPjDuxiUrJA-9" value="Sending Search Link&amp;nbsp;" style="edgeLabel;html=1;align=center;verticalAlign=middle;resizable=0;points=[];" vertex="1" connectable="0" parent="xeRGKZyjkTPjDuxiUrJA-8">
          <mxGeometry x="-0.1539" y="3" relative="1" as="geometry">
            <mxPoint x="18" y="3" as="offset" />
          </mxGeometry>
        </mxCell>
        <mxCell id="xeRGKZyjkTPjDuxiUrJA-10" value="" style="endArrow=classic;html=1;rounded=0;exitX=0.5;exitY=1;exitDx=0;exitDy=0;entryX=0.825;entryY=1.018;entryDx=0;entryDy=0;entryPerimeter=0;" edge="1" parent="1" source="xeRGKZyjkTPjDuxiUrJA-5" target="xeRGKZyjkTPjDuxiUrJA-1">
          <mxGeometry width="50" height="50" relative="1" as="geometry">
            <mxPoint x="195" y="360" as="sourcePoint" />
            <mxPoint x="-80" y="320" as="targetPoint" />
            <Array as="points">
              <mxPoint x="220" y="320" />
              <mxPoint x="-41" y="320" />
              <mxPoint x="-41" y="300" />
            </Array>
          </mxGeometry>
        </mxCell>
        <mxCell id="xeRGKZyjkTPjDuxiUrJA-13" value="Page Not Found" style="edgeLabel;html=1;align=center;verticalAlign=middle;resizable=0;points=[];" vertex="1" connectable="0" parent="xeRGKZyjkTPjDuxiUrJA-10">
          <mxGeometry x="0.026" relative="1" as="geometry">
            <mxPoint x="20" as="offset" />
          </mxGeometry>
        </mxCell>
        <mxCell id="xeRGKZyjkTPjDuxiUrJA-11" value="" style="endArrow=classic;html=1;rounded=0;exitX=1;exitY=0.5;exitDx=0;exitDy=0;entryX=0;entryY=0.5;entryDx=0;entryDy=0;" edge="1" parent="1" source="xeRGKZyjkTPjDuxiUrJA-5" target="xeRGKZyjkTPjDuxiUrJA-2">
          <mxGeometry width="50" height="50" relative="1" as="geometry">
            <mxPoint x="400" y="360" as="sourcePoint" />
            <mxPoint x="450" y="310" as="targetPoint" />
          </mxGeometry>
        </mxCell>
        <mxCell id="xeRGKZyjkTPjDuxiUrJA-12" value="Send Link" style="edgeLabel;html=1;align=center;verticalAlign=middle;resizable=0;points=[];" vertex="1" connectable="0" parent="xeRGKZyjkTPjDuxiUrJA-11">
          <mxGeometry x="-0.1108" relative="1" as="geometry">
            <mxPoint as="offset" />
          </mxGeometry>
        </mxCell>
        <mxCell id="xeRGKZyjkTPjDuxiUrJA-14" value="" style="endArrow=classic;html=1;rounded=0;exitX=0.5;exitY=1;exitDx=0;exitDy=0;entryX=0.5;entryY=0;entryDx=0;entryDy=0;" edge="1" parent="1" source="xeRGKZyjkTPjDuxiUrJA-2" target="xeRGKZyjkTPjDuxiUrJA-6">
          <mxGeometry width="50" height="50" relative="1" as="geometry">
            <mxPoint x="400" y="450" as="sourcePoint" />
            <mxPoint x="450" y="400" as="targetPoint" />
          </mxGeometry>
        </mxCell>
        <mxCell id="xeRGKZyjkTPjDuxiUrJA-15" value="Web Scrap &lt;br&gt;Response&amp;nbsp;" style="edgeLabel;html=1;align=center;verticalAlign=middle;resizable=0;points=[];" vertex="1" connectable="0" parent="xeRGKZyjkTPjDuxiUrJA-14">
          <mxGeometry x="-0.1363" y="1" relative="1" as="geometry">
            <mxPoint as="offset" />
          </mxGeometry>
        </mxCell>
        <mxCell id="xeRGKZyjkTPjDuxiUrJA-16" value="" style="endArrow=classic;html=1;rounded=0;exitX=0;exitY=0.5;exitDx=0;exitDy=0;entryX=0.5;entryY=1;entryDx=0;entryDy=0;" edge="1" parent="1" source="xeRGKZyjkTPjDuxiUrJA-6" target="xeRGKZyjkTPjDuxiUrJA-1">
          <mxGeometry width="50" height="50" relative="1" as="geometry">
            <mxPoint x="400" y="450" as="sourcePoint" />
            <mxPoint x="-120" y="400" as="targetPoint" />
            <Array as="points">
              <mxPoint x="-80" y="400" />
            </Array>
          </mxGeometry>
        </mxCell>
        <mxCell id="xeRGKZyjkTPjDuxiUrJA-17" value="Not Supported" style="edgeLabel;html=1;align=center;verticalAlign=middle;resizable=0;points=[];" vertex="1" connectable="0" parent="xeRGKZyjkTPjDuxiUrJA-16">
          <mxGeometry x="-0.1372" y="1" relative="1" as="geometry">
            <mxPoint as="offset" />
          </mxGeometry>
        </mxCell>
        <mxCell id="xeRGKZyjkTPjDuxiUrJA-18" value="" style="endArrow=classic;html=1;rounded=0;exitX=0.5;exitY=1;exitDx=0;exitDy=0;entryX=0.5;entryY=0;entryDx=0;entryDy=0;" edge="1" parent="1" source="xeRGKZyjkTPjDuxiUrJA-6" target="xeRGKZyjkTPjDuxiUrJA-3">
          <mxGeometry width="50" height="50" relative="1" as="geometry">
            <mxPoint x="210" y="480" as="sourcePoint" />
            <mxPoint x="260" y="430" as="targetPoint" />
          </mxGeometry>
        </mxCell>
        <mxCell id="xeRGKZyjkTPjDuxiUrJA-28" value="Supported" style="edgeLabel;html=1;align=center;verticalAlign=middle;resizable=0;points=[];" vertex="1" connectable="0" parent="xeRGKZyjkTPjDuxiUrJA-18">
          <mxGeometry x="-0.4212" y="1" relative="1" as="geometry">
            <mxPoint as="offset" />
          </mxGeometry>
        </mxCell>
        <mxCell id="xeRGKZyjkTPjDuxiUrJA-19" value="" style="endArrow=classic;html=1;rounded=0;exitX=0;exitY=0.25;exitDx=0;exitDy=0;entryX=1;entryY=0.25;entryDx=0;entryDy=0;" edge="1" parent="1" source="xeRGKZyjkTPjDuxiUrJA-3" target="xeRGKZyjkTPjDuxiUrJA-4">
          <mxGeometry width="50" height="50" relative="1" as="geometry">
            <mxPoint x="210" y="480" as="sourcePoint" />
            <mxPoint x="260" y="430" as="targetPoint" />
          </mxGeometry>
        </mxCell>
        <mxCell id="xeRGKZyjkTPjDuxiUrJA-22" value="Send Data" style="edgeLabel;html=1;align=center;verticalAlign=middle;resizable=0;points=[];" vertex="1" connectable="0" parent="xeRGKZyjkTPjDuxiUrJA-19">
          <mxGeometry x="0.016" y="-2" relative="1" as="geometry">
            <mxPoint as="offset" />
          </mxGeometry>
        </mxCell>
        <mxCell id="xeRGKZyjkTPjDuxiUrJA-20" value="" style="endArrow=classic;html=1;rounded=0;exitX=1;exitY=0.75;exitDx=0;exitDy=0;entryX=0;entryY=0.75;entryDx=0;entryDy=0;" edge="1" parent="1" source="xeRGKZyjkTPjDuxiUrJA-4" target="xeRGKZyjkTPjDuxiUrJA-3">
          <mxGeometry width="50" height="50" relative="1" as="geometry">
            <mxPoint x="210" y="480" as="sourcePoint" />
            <mxPoint x="260" y="430" as="targetPoint" />
          </mxGeometry>
        </mxCell>
        <mxCell id="xeRGKZyjkTPjDuxiUrJA-21" value="Retrive ML Response" style="edgeLabel;html=1;align=center;verticalAlign=middle;resizable=0;points=[];" vertex="1" connectable="0" parent="xeRGKZyjkTPjDuxiUrJA-20">
          <mxGeometry x="-0.3271" y="-1" relative="1" as="geometry">
            <mxPoint x="29" as="offset" />
          </mxGeometry>
        </mxCell>
        <mxCell id="xeRGKZyjkTPjDuxiUrJA-23" value="" style="endArrow=classic;html=1;rounded=0;entryX=0.174;entryY=1.018;entryDx=0;entryDy=0;entryPerimeter=0;exitX=0.82;exitY=1.028;exitDx=0;exitDy=0;exitPerimeter=0;" edge="1" parent="1" source="xeRGKZyjkTPjDuxiUrJA-3" target="xeRGKZyjkTPjDuxiUrJA-1">
          <mxGeometry width="50" height="50" relative="1" as="geometry">
            <mxPoint x="-120" y="620" as="sourcePoint" />
            <mxPoint x="210" y="420" as="targetPoint" />
            <Array as="points">
              <mxPoint x="560" y="640" />
              <mxPoint x="-119" y="640" />
            </Array>
          </mxGeometry>
        </mxCell>
        <mxCell id="xeRGKZyjkTPjDuxiUrJA-31" value="Retrive ML Analysis&amp;nbsp;" style="edgeLabel;html=1;align=center;verticalAlign=middle;resizable=0;points=[];" vertex="1" connectable="0" parent="xeRGKZyjkTPjDuxiUrJA-23">
          <mxGeometry x="-0.2744" relative="1" as="geometry">
            <mxPoint as="offset" />
          </mxGeometry>
        </mxCell>
        <mxCell id="xeRGKZyjkTPjDuxiUrJA-24" value="" style="endArrow=classic;html=1;rounded=0;exitX=0.325;exitY=1.049;exitDx=0;exitDy=0;exitPerimeter=0;entryX=0;entryY=0.5;entryDx=0;entryDy=0;" edge="1" parent="1" source="xeRGKZyjkTPjDuxiUrJA-1" target="xeRGKZyjkTPjDuxiUrJA-25">
          <mxGeometry width="50" height="50" relative="1" as="geometry">
            <mxPoint x="140" y="460" as="sourcePoint" />
            <mxPoint x="500" y="610" as="targetPoint" />
            <Array as="points">
              <mxPoint x="-100" y="560" />
            </Array>
          </mxGeometry>
        </mxCell>
        <mxCell id="xeRGKZyjkTPjDuxiUrJA-27" value="Store User Info&amp;nbsp;&lt;br&gt;When Sign Up" style="edgeLabel;html=1;align=center;verticalAlign=middle;resizable=0;points=[];" vertex="1" connectable="0" parent="xeRGKZyjkTPjDuxiUrJA-24">
          <mxGeometry x="0.0155" relative="1" as="geometry">
            <mxPoint x="30" y="31" as="offset" />
          </mxGeometry>
        </mxCell>
        <mxCell id="xeRGKZyjkTPjDuxiUrJA-25" value="Back-End&lt;br&gt;Storage" style="rounded=1;whiteSpace=wrap;html=1;" vertex="1" parent="1">
          <mxGeometry x="-40" y="530" width="120" height="60" as="geometry" />
        </mxCell>
        <mxCell id="xeRGKZyjkTPjDuxiUrJA-29" value="" style="endArrow=classic;html=1;rounded=0;exitX=0.25;exitY=1;exitDx=0;exitDy=0;entryX=0.5;entryY=1;entryDx=0;entryDy=0;" edge="1" parent="1" source="xeRGKZyjkTPjDuxiUrJA-3" target="xeRGKZyjkTPjDuxiUrJA-25">
          <mxGeometry width="50" height="50" relative="1" as="geometry">
            <mxPoint x="150" y="410" as="sourcePoint" />
            <mxPoint x="200" y="360" as="targetPoint" />
            <Array as="points">
              <mxPoint x="490" y="620" />
              <mxPoint x="20" y="620" />
            </Array>
          </mxGeometry>
        </mxCell>
        <mxCell id="xeRGKZyjkTPjDuxiUrJA-30" value="Product Data&amp;nbsp;" style="edgeLabel;html=1;align=center;verticalAlign=middle;resizable=0;points=[];" vertex="1" connectable="0" parent="xeRGKZyjkTPjDuxiUrJA-29">
          <mxGeometry x="0.1631" y="-1" relative="1" as="geometry">
            <mxPoint as="offset" />
          </mxGeometry>
        </mxCell>
      </root>
    </mxGraphModel>
  </diagram>
</mxfile>
